<svg xmlns="http://www.w3.org/2000/svg" version="1.1" xmlns:xlink="http://www.w3.org/1999/xlink" width="512" height="512" x="0" y="0" viewBox="0 0 152 152" style="enable-background:new 0 0 512 512" xml:space="preserve"><g><g data-name="Layer 2"><g data-name="05.instagram"><circle cx="76" cy="76" r="12.01" fill="#ffffff" opacity="1" data-original="#000000"></circle><path d="M91.36 45.65H60.64a15 15 0 0 0-15 15v30.71a15 15 0 0 0 15 15h30.72a15 15 0 0 0 15-15V60.64a15 15 0 0 0-15-14.99zM76 95.66A19.66 19.66 0 1 1 95.65 76 19.68 19.68 0 0 1 76 95.66zM95.77 61.2a4.86 4.86 0 1 1 4.85-4.85 4.86 4.86 0 0 1-4.85 4.85z" fill="#ffffff" opacity="1" data-original="#000000"></path><path d="M76 0a76 76 0 1 0 76 76A76 76 0 0 0 76 0zm38 91.36A22.66 22.66 0 0 1 91.36 114H60.64A22.67 22.67 0 0 1 38 91.36V60.64A22.67 22.67 0 0 1 60.64 38h30.72A22.67 22.67 0 0 1 114 60.64z" fill="#ffffff" opacity="1" data-original="#000000"></path></g></g></g></svg>